HIERARCHY
ROOT hip
{
	OFFSET 0.000000 0.000000 0.000000 
	CHANNELS 6 Xposition Yposition Zposition Xrotation Zrotation Yrotation
	JOINT abdomen
	{
		OFFSET 0.000000 3.402643 0.000000 
		CHANNELS 3 Xrotation Zrotation Yrotation
		JOINT chest
		{
			OFFSET 0.000000 8.438565 -0.680529 
			CHANNELS 3 Xrotation Zrotation Yrotation
			JOINT neck
			{
				OFFSET 0.000000 10.207942 -0.272212 
				CHANNELS 3 Xrotation Zrotation Yrotation
				JOINT head
				{
					OFFSET 0.000000 3.130431 0.000000 
					CHANNELS 3 Xrotation Zrotation Yrotation
					End Site
					{
						OFFSET 0.000000 3.130435 0.000000 
					}
				}
			}
			JOINT lCollar
			{
				OFFSET 3.470700 6.669187 -0.816635 
				CHANNELS 3 Yrotation Zrotation Xrotation
				JOINT lShldr
				{
					OFFSET 3.198488 0.000000 0.000000 
					CHANNELS 3 Zrotation Yrotation Xrotation
					JOINT lForeArm
					{
						OFFSET 10.139888 0.000000 0.000000 
						CHANNELS 3 Yrotation Zrotation Xrotation
						JOINT lHand
						{
							OFFSET 8.370511 0.000000 0.000000 
							CHANNELS 3 Zrotation Yrotation Xrotation
							End Site
							{
								OFFSET 4.083176 0.000000 0.000000 
							}
						}
					}
				}
			}
			JOINT rCollar
			{
				OFFSET -3.470700 6.669187 -0.816635 
				CHANNELS 3 Yrotation Zrotation Xrotation
				JOINT rShldr
				{
					OFFSET -3.198488 0.000000 0.000000 
					CHANNELS 3 Zrotation Yrotation Xrotation
					JOINT rForeArm
					{
						OFFSET -10.139888 0.000000 0.000000 
						CHANNELS 3 Yrotation Zrotation Xrotation
						JOINT rHand
						{
							OFFSET -8.370511 0.000000 0.000000 
							CHANNELS 3 Zrotation Yrotation Xrotation
							End Site
							{
								OFFSET -4.083176 0.000000 0.000000 
							}
						}
					}
				}
			}
		}
	}
	JOINT lThigh
	{
		OFFSET 5.308129 -1.633274 1.361059 
		CHANNELS 3 Xrotation Zrotation Yrotation
		JOINT lShin
		{
			OFFSET -2.041588 -20.007561 0.000000 
			CHANNELS 3 Xrotation Zrotation Yrotation
			JOINT lFoot
			{
				OFFSET 0.000000 -19.190928 -1.224953 
				CHANNELS 3 Xrotation Yrotation Zrotation
				End Site
				{
					OFFSET 0.000000 -2.449906 4.627600 
				}
			}
		}
	}
	JOINT rThigh
	{
		OFFSET -5.308129 -1.633274 1.361059 
		CHANNELS 3 Xrotation Zrotation Yrotation
		JOINT rShin
		{
			OFFSET 2.041588 -20.007561 0.000000 
			CHANNELS 3 Xrotation Zrotation Yrotation
			JOINT rFoot
			{
				OFFSET 0.000000 -19.190928 -1.224953 
				CHANNELS 3 Xrotation Yrotation Zrotation
				End Site
				{
					OFFSET 0.000000 -2.449906 4.627600 
				}
			}
		}
	}
}
MOTION
Frames: 14
Frame Time: 0.033333
0.053744 28.006319 0.062303 3.496094 0.683594 150.859497 42.225769 -13.992883 -1.953326 -22.041016 5.917970 1.251007 51.553619 8.070152 2.616707 -56.982422 -8.535155 -7.325669 2.000000 -2.000000 0.000000 -65.117188 9.687500 -23.230776 -113.957489 1.184199 -2.559249 10.730931 13.279963 62.611374 -2.000000 2.000000 0.000000 83.388672 -27.314453 -8.627528 126.671539 -1.855479 -2.959458 -12.317194 -12.535702 66.667267 -75.743065 10.730969 -2.592622 76.360680 -1.804758 -5.457162 9.881981 16.705616 -18.653048 -76.926018 -14.989467 1.903169 74.874298 1.064638 4.972437 14.666701 -19.951294 16.422901 
0.115810 27.919344 0.132494 3.496094 0.683594 150.859497 42.575726 -14.196728 -1.940842 -21.865234 5.917970 1.269531 51.553619 8.070152 2.616707 -57.851566 -6.513671 -16.542969 2.000000 -2.000000 0.000000 -64.941406 9.306641 -22.781620 -114.137871 1.164831 -2.724354 10.933475 13.223457 62.775600 -2.000000 2.000000 0.000000 82.441406 -25.986328 -10.326544 125.982033 -1.964831 -2.760772 -12.115835 -12.474739 66.669037 -76.070717 11.220055 -2.180017 76.024277 -2.019086 -5.406649 9.806969 16.784136 -17.690588 -77.044090 -15.643492 1.213889 74.882698 1.044864 4.996967 14.495367 -19.946630 15.683999 
0.209434 27.856058 0.197140 3.339844 0.507813 150.849731 42.734722 -14.487306 -1.754839 -21.865234 5.917970 1.269531 51.553619 8.070152 2.616707 -58.779305 -5.029296 -21.708988 2.000000 -2.000000 0.000000 -64.746094 8.955079 -22.714842 -114.312828 1.176277 -2.695685 10.730931 13.279963 62.611374 -2.000000 2.000000 0.000000 81.318359 -24.306643 -12.113395 125.282433 -1.967236 -2.888029 -12.145185 -12.436016 66.843178 -76.156570 11.649675 -1.023691 75.796982 -1.560225 -5.467669 9.923712 16.533140 -16.703363 -77.376747 -16.307974 0.841816 75.058617 1.064063 5.014432 14.404531 -19.797791 14.786704 
0.327346 27.808681 0.250745 3.164063 0.341797 150.839905 42.884995 -14.570634 -1.587962 -21.679688 5.908203 1.279297 51.553619 8.070152 2.616707 -59.580082 -4.082031 -23.710938 2.000000 -2.000000 0.000000 -64.550781 8.789063 -22.361786 -114.488350 1.167094 -2.685373 10.730931 13.279963 62.611374 -2.000000 2.000000 0.000000 80.029297 -22.792967 -13.431517 124.419792 -2.342789 -2.821797 -12.288811 -12.496301 66.825165 -76.477882 12.323118 -0.561912 75.835075 -1.902014 -5.427917 9.669430 16.438288 -15.578132 -77.519226 -16.582390 0.084893 75.077522 1.223182 5.132905 13.977316 -19.752234 14.124460 
0.239451 27.816580 0.188173 2.812500 0.341797 151.005936 43.245270 -14.774433 -1.575647 -21.689455 5.732422 1.435547 51.553619 8.070152 2.616707 -60.380859 -3.134765 -25.527342 2.000000 -2.000000 0.000000 -64.375008 8.583983 -22.050781 -114.663589 1.168225 -2.665881 10.730931 13.279963 62.611374 -2.000000 2.000000 0.000000 79.072266 -21.962893 -14.935293 123.508804 -2.008917 -2.675323 -12.403676 -12.546498 66.652557 -76.763870 12.928961 0.433112 75.811363 -1.736138 -5.446392 9.328162 16.073088 -14.870816 -77.816818 -17.235489 -0.362447 75.066757 1.210915 5.151935 13.801931 -19.750185 13.239671 
0.152302 27.784874 0.126350 2.636719 0.166016 150.996094 43.394688 -15.064971 -1.387366 -21.513674 5.732421 1.464844 51.553619 8.070152 2.616707 -61.171879 -2.187500 -27.050783 2.000000 -2.000000 0.000000 -64.218750 8.925781 -22.000439 -114.838829 1.169356 -2.646390 10.730931 13.279963 62.611374 -2.000000 2.000000 0.000000 78.857422 -21.660156 -16.116884 122.270523 -1.985460 -2.742411 -12.374807 -12.546154 66.654205 -76.712967 13.553689 1.121909 75.834435 -1.892053 -5.439676 9.252754 15.942719 -13.464005 -77.926376 -17.694912 -1.339111 75.066406 1.210926 5.161540 13.644370 -19.993999 12.620872 
0.069039 27.745394 0.068496 2.275391 0.000000 150.986328 43.578758 -15.259626 -1.371755 -21.513674 5.732421 1.464844 51.553619 8.070152 2.616707 -61.972656 -1.250000 -28.584198 2.000000 -2.000000 0.000000 -63.681644 9.101562 -21.650393 -115.026093 1.311635 -2.723115 10.894587 13.262116 62.592255 -2.000000 2.000000 0.000000 79.052734 -21.826172 -16.464842 120.850960 -2.002562 -2.616285 -12.365186 -12.546039 66.654747 -77.030823 14.199492 1.889347 75.978271 -1.562515 -5.330151 9.099492 16.066381 -12.632617 -78.242073 -18.359724 -1.918041 75.076157 1.213326 5.164029 13.548151 -19.831362 11.704973 
-0.003358 27.721708 0.002551 2.109375 0.000000 151.171875 43.739208 -15.555788 -1.196157 -21.347658 5.546875 1.445313 51.553619 8.070152 2.616707 -62.783203 -0.312500 -29.980524 2.000000 -2.000000 0.000000 -63.359375 9.453125 -21.601561 -115.376564 1.313897 -2.684134 10.894587 13.262116 62.592255 -2.000000 2.000000 0.000000 79.208984 -21.660156 -17.122744 119.963051 -1.884441 -2.628993 -12.384310 -12.556033 66.653648 -77.310410 14.657504 2.681485 75.958565 -1.530708 -5.314371 8.561503 15.794596 -11.685153 -78.558792 -18.846306 -2.298352 75.242470 1.191364 5.150650 13.125100 -19.610029 11.127802 
-0.072511 27.690006 -0.052153 1.933594 -0.175781 151.162109 44.098572 -15.741303 -1.177250 -21.347658 5.546875 1.445313 51.553619 8.070152 2.616707 -63.574219 0.605469 -31.201176 2.000000 -2.000000 0.000000 -63.027348 9.794922 -21.738279 -115.551804 1.315028 -2.664643 10.894587 13.262116 62.592255 -2.000000 2.000000 0.000000 79.335938 -21.230469 -17.386345 119.098679 -2.068682 -2.825463 -12.442534 -12.517662 66.826141 -77.631226 15.301193 3.284912 75.968277 -1.540890 -5.322778 8.005722 15.386034 -10.407033 -78.685455 -19.324394 -2.909102 75.066757 1.210920 5.151937 12.960762 -19.814222 10.524277 
-0.145749 27.682108 -0.109078 1.572266 -0.361328 151.132736 44.248230 -15.817778 -1.031304 -21.171875 5.546875 1.455078 51.553619 8.070152 2.616707 -64.394531 1.357422 -32.255859 2.000000 -2.000000 0.000000 -62.685551 10.166015 -21.542969 -115.902023 1.308108 -2.615349 10.894587 13.262116 62.592255 -2.000000 2.000000 0.000000 79.296875 -20.791018 -18.001514 118.014809 -1.728589 -2.786187 -12.432911 -12.517547 66.826691 -77.951889 15.622970 3.655494 76.006073 -1.882678 -5.293478 7.804412 15.146385 -9.711931 -78.833626 -19.754560 -3.465921 75.242470 1.191363 5.150650 12.682384 -19.652058 9.755137 
-0.199517 27.634737 -0.158394 1.406250 -0.361328 151.318298 44.406857 -16.092270 -0.858163 -21.171875 5.546875 1.630859 51.553619 8.070152 2.616707 -65.214844 2.265625 -33.359375 2.000000 -2.000000 0.000000 -62.363281 10.507812 -21.484373 -116.252808 1.290308 -2.584979 10.894587 13.262116 62.592255 -2.000000 2.000000 0.000000 79.453125 -20.380859 -18.320313 116.968765 -1.750349 -2.748335 -12.423166 -12.527198 66.827240 -78.076241 16.269930 4.454778 75.988045 -1.559643 -5.328790 7.526188 15.259937 -8.702034 -79.158569 -20.253445 -3.994871 75.243454 1.211237 5.136544 12.280400 -19.616535 9.262674 
-0.252827 27.618822 -0.196754 1.054688 -0.527342 151.308426 44.758991 -16.295931 -0.846241 -20.996094 5.380859 1.622010 51.553619 8.070152 2.616707 -66.035156 3.027344 -34.287113 2.000000 -2.000000 0.000000 -62.011719 10.683594 -21.521624 -116.433525 1.290756 -2.409213 10.894587 13.262116 62.592255 -2.000000 2.000000 0.000000 79.462891 -19.687502 -18.626337 116.265854 -1.924704 -2.778002 -12.374564 -12.565682 66.654198 -78.235207 16.560537 4.635853 76.183182 -1.882338 -5.269799 7.164904 14.658737 -8.071039 -79.474739 -20.573614 -4.331278 75.418106 1.191437 5.163853 12.387272 -19.203758 8.889720 
-0.287498 27.587242 -0.230282 0.703125 -0.722656 151.308594 44.944324 -16.490475 -0.830957 -20.996094 5.380859 1.622010 51.553619 8.070152 2.616707 -66.875000 3.759766 -35.048832 2.000000 -2.000000 0.000000 -61.835938 10.683595 -21.521624 -116.784309 1.272958 -2.378839 10.894587 13.262116 62.592255 -2.000000 2.000000 0.000000 79.453125 -19.277344 -18.886721 115.736931 -1.771843 -3.052404 -12.442411 -12.527428 66.826141 -78.547691 16.677406 5.353337 76.157303 -1.501583 -5.481484 7.328028 14.713052 -7.917015 -79.822182 -20.917349 -4.628259 75.418106 1.191440 5.163857 12.064011 -19.395458 8.580917 
-0.303327 27.563555 -0.252838 0.527344 -0.703124 151.493988 45.113216 -16.563520 -0.691492 -20.996094 5.380859 1.622010 51.553619 8.070152 2.616707 -67.539063 4.306640 -35.780521 2.000000 -2.000000 0.000000 -61.435551 10.722657 -21.142578 -117.135590 1.283274 -2.369663 10.921603 13.428424 62.639454 -2.000000 2.000000 0.000000 79.238281 -18.935547 -19.007074 115.557892 -1.759115 -2.934330 -12.413667 -12.517317 66.847321 -78.902237 16.834846 5.456025 76.148460 -1.530643 -5.473749 6.827987 14.627461 -7.235412 -80.185036 -21.084042 -4.938522 75.427505 1.193799 5.175917 11.876932 -19.260460 8.195860 
